<?xml version="1.0" encoding="utf-8"?>
<!-- Generator: Adobe Illustrator 27.5.0, SVG Export Plug-In . SVG Version: 6.00 Build 0)  -->
<svg version="1.1" id="图层_1" xmlns="http://www.w3.org/2000/svg" xmlns:xlink="http://www.w3.org/1999/xlink" x="0px" y="0px"
	 viewBox="0 0 283.46 283.46" style="enable-background:new 0 0 283.46 283.46;" xml:space="preserve">
<style type="text/css">
	.st0{fill:#040000;}
</style>
<path class="st0" d="M75.29,221.96c0,8.84,4.42,13,13,13h111.8c8.84,0,13-4.42,13-13v-10.4c0-8.58-4.16-13-13-13h-61.31
	c65.48-58.6,69.37-74.97,69.37-95.42c0-60.84-95.68-70.72-133.9-30.42c-5.72,6.5-5.46,11.96,3.12,17.16l10.4,6.5
	c7.28,4.68,13,4.94,17.42,1.3c4.42-4.16,14.56-13,29.9-13c15.08,0,28.6,7.28,28.6,21.32c0,15.6-3.64,26-78.52,90.74
	c-6.76,5.98-9.88,11.7-9.88,17.68V221.96z"/>
</svg>
