<?xml version="1.0" encoding="utf-8"?>
<!-- Generator: Adobe Illustrator 27.5.0, SVG Export Plug-In . SVG Version: 6.00 Build 0)  -->
<svg version="1.1" id="图层_1" xmlns="http://www.w3.org/2000/svg" xmlns:xlink="http://www.w3.org/1999/xlink" x="0px" y="0px"
	 viewBox="0 0 283.46 283.46" style="enable-background:new 0 0 283.46 283.46;" xml:space="preserve">
<style type="text/css">
	.st0{fill:#040000;}
</style>
<path class="st0" d="M162.75,123.12l32.35-37.28c5.98-6.76,8.58-12.48,8.58-20.54v-3.64c0-8.84-4.42-13-13-13H89.02
	c-8.84,0-13,4.42-13,13v10.4c0,8.84,4.42,13,13,13h59.26l-27.8,31.98c-5.98,6.76-7.02,11.18-7.02,17.16v6.5c0,8.84,4.42,13,13,13
	h15.6c14.82,0,27.56,4.94,27.56,23.92c0.26,28.34-44.46,22.88-74.1,10.14c-8.06-3.9-13.78-1.82-17.42,5.98l-4.94,9.88
	c-3.9,8.06-2.86,13.78,4.94,17.16c14.3,6.5,37.44,14.04,60.06,14.04c37.18,0,74.36-14.04,74.36-57.2
	C212.51,139.97,186.23,127.13,162.75,123.12z"/>
</svg>
