<?xml version="1.0" encoding="utf-8"?>
<!-- Generator: Adobe Illustrator 27.5.0, SVG Export Plug-In . SVG Version: 6.00 Build 0)  -->
<svg version="1.1" id="图层_1" xmlns="http://www.w3.org/2000/svg" xmlns:xlink="http://www.w3.org/1999/xlink" x="0px" y="0px"
	 viewBox="0 0 283.46 283.46" style="enable-background:new 0 0 283.46 283.46;" xml:space="preserve">
<style type="text/css">
	.st0{fill:#040000;}
</style>
<path class="st0" d="M188.93,48.65c8.58,0,13,4.16,13,13v10.4c0,8.58-4.16,13-13,13h-62.87l-3.02,30.69
	c37.13,0.18,90.59,5.21,90.59,57.71c0,44.72-38.22,61.36-78.26,61.36c-25.74,0-43.42-6.76-57.46-13.26
	c-8.06-3.64-10.14-9.1-5.98-16.9l6.24-12.22c3.9-7.54,9.62-9.36,17.16-4.94c31.98,15.86,74.1,17.42,74.1-14.04
	c0-18.2-25.48-19.24-48.62-19.24H91.95c-8.58,0-12.48-4.16-11.7-13l7.8-79.56c0.78-8.58,5.46-13,14.3-13H188.93z"/>
</svg>
