<?xml version="1.0" encoding="utf-8"?>
<!-- Generator: Adobe Illustrator 27.5.0, SVG Export Plug-In . SVG Version: 6.00 Build 0)  -->
<svg version="1.1" id="图层_1" xmlns="http://www.w3.org/2000/svg" xmlns:xlink="http://www.w3.org/1999/xlink" x="0px" y="0px"
	 viewBox="0 0 283.46 283.46" style="enable-background:new 0 0 283.46 283.46;" xml:space="preserve">
<style type="text/css">
	.st0{fill:#040000;}
</style>
<path class="st0" d="M181.64,85.96c-28.86-8.58-68.64-3.38-73.32,48.62C129.38,98.96,218.56,113,218.56,175.4
	c0,31.98-27.3,61.36-73.32,61.36c-55.12,0-80.34-37.7-80.34-93.6c0-68.64,47.58-96.46,94.38-96.46c15.6,0,33.02,4.68,39,7.8
	c5.72,2.6,9.36,7.02,5.46,15.08l-5.2,11.44C195.42,87,189.96,89.08,181.64,85.96z M145.76,200.62c15.08-0.26,30.16-8.32,30.16-24.18
	c0.26-16.64-15.6-25.22-31.2-25.22s-30.68,8.06-30.42,24.44C114.56,192.3,130.16,200.62,145.76,200.62z"/>
</svg>
