<?xml version="1.0" encoding="utf-8"?>
<!-- Generator: Adobe Illustrator 27.5.0, SVG Export Plug-In . SVG Version: 6.00 Build 0)  -->
<svg version="1.1" id="图层_1" xmlns="http://www.w3.org/2000/svg" xmlns:xlink="http://www.w3.org/1999/xlink" x="0px" y="0px"
	 viewBox="0 0 283.46 283.46" style="enable-background:new 0 0 283.46 283.46;" xml:space="preserve">
<style type="text/css">
	.st0{fill:#040000;}
</style>
<path class="st0" d="M191.68,137.7c13.33-9.37,21.16-22.9,21.16-38.87c0-30.68-29.38-52.26-71.24-52.26
	c-41.6,0-70.98,21.58-70.98,52.26c0,15.96,7.84,29.49,21.12,38.86c-17.41,9.75-27.88,25.04-27.88,43.56
	c0,32.5,32.24,55.64,77.74,55.64c45.76,0,78-23.14,78-55.64C219.6,162.74,209.13,147.45,191.68,137.7z M141.6,82.97
	c17.68,0,28.86,8.06,28.86,20.54c0,12.74-11.18,20.54-28.86,20.54s-28.6-7.8-28.6-20.54C113,91.03,123.92,82.97,141.6,82.97z
	 M141.6,200.49c-19.76,0-33.54-9.88-33.54-23.92c0-14.04,13.78-23.92,33.54-23.92c20.02,0,33.8,9.88,33.8,23.92
	C175.4,190.61,161.62,200.49,141.6,200.49z"/>
</svg>
