<?xml version="1.0" encoding="utf-8"?>
<!-- Generator: Adobe Illustrator 27.5.0, SVG Export Plug-In . SVG Version: 6.00 Build 0)  -->
<svg version="1.1" id="图层_1" xmlns="http://www.w3.org/2000/svg" xmlns:xlink="http://www.w3.org/1999/xlink" x="0px" y="0px"
	 viewBox="0 0 283.46 283.46" style="enable-background:new 0 0 283.46 283.46;" xml:space="preserve">
<style type="text/css">
	.st0{fill:#040000;}
</style>
<path class="st0" d="M101.82,197.34c28.86,8.58,68.64,3.38,73.32-48.62C154.08,184.34,64.9,170.3,64.9,107.9
	c0-31.98,27.3-61.36,73.32-61.36c55.12,0,80.34,37.7,80.34,93.6c0,91.52-85.8,109.98-132.6,88.92c-7.54-3.38-9.88-8.58-6.5-15.6
	l4.42-9.1C88.56,195,93.5,194.22,101.82,197.34z M137.7,82.68c-15.08,0.26-30.16,8.32-30.16,24.18
	c-0.26,16.64,15.6,25.22,31.2,25.22s30.68-8.06,30.42-24.44C168.9,91,153.3,82.68,137.7,82.68z"/>
</svg>
