<?xml version="1.0" encoding="utf-8"?>
<!-- Generator: Adobe Illustrator 27.5.0, SVG Export Plug-In . SVG Version: 6.00 Build 0)  -->
<svg version="1.1" id="图层_1" xmlns="http://www.w3.org/2000/svg" xmlns:xlink="http://www.w3.org/1999/xlink" x="0px" y="0px"
	 viewBox="0 0 283.46 283.46" style="enable-background:new 0 0 283.46 283.46;" xml:space="preserve">
<path d="M188.92,137.25c14.24-7.28,25.36-20.07,25.36-40.76c0-37.18-42.38-45.76-65.78-45.76H72.83c-8.58,0-13,4.16-13,13v156
	c0,8.58,4.16,13,13,13h76.18c31.2,0,74.62-7.02,74.62-49.4C223.63,157.46,208.9,143.9,188.92,137.25z M102.73,84.53h42.64
	c13.26,0,26,5.46,26,19.5s-12.74,19.76-26,19.76h-42.64V84.53z M145.89,198.93h-43.16v-41.34h43.16c11.44,0,35.62,0,35.62,20.54
	C181.51,198.93,157.33,198.93,145.89,198.93z"/>
</svg>
