<?xml version="1.0" encoding="utf-8"?>
<!-- Generator: Adobe Illustrator 27.5.0, SVG Export Plug-In . SVG Version: 6.00 Build 0)  -->
<svg version="1.1" id="图层_1" xmlns="http://www.w3.org/2000/svg" xmlns:xlink="http://www.w3.org/1999/xlink" x="0px" y="0px"
	 viewBox="0 0 283.46 283.46" style="enable-background:new 0 0 283.46 283.46;" xml:space="preserve">
<style type="text/css">
	.st0{fill:#040000;}
</style>
<path class="st0" d="M155.28,46.57c34.06,0,52.26,10.66,67.6,23.14c6.5,5.46,6.24,11.96,0.78,17.16l-11.44,10.4
	c-6.24,5.98-11.7,5.2-17.94-1.04c-10.92-8.84-23.66-13.26-39-13.26c-32.5,0-55.38,24.44-55.38,58.76s22.88,58.76,55.38,58.76
	c19.76,0,30.94-7.54,39.78-14.04c7.02-4.94,11.44-5.46,17.94,0.52l9.1,8.32c6.24,5.98,6.76,11.96,0.78,18.46
	c-16.9,15.08-41.86,23.14-67.6,23.14c-55.64,0-99.58-41.86-99.58-95.16S99.64,46.57,155.28,46.57z"/>
</svg>
