<?xml version="1.0" encoding="utf-8"?>
<!-- Generator: Adobe Illustrator 27.5.0, SVG Export Plug-In . SVG Version: 6.00 Build 0)  -->
<svg version="1.1" id="图层_1" xmlns="http://www.w3.org/2000/svg" xmlns:xlink="http://www.w3.org/1999/xlink" x="0px" y="0px"
	 viewBox="0 0 283.46 283.46" style="enable-background:new 0 0 283.46 283.46;" xml:space="preserve">
<style type="text/css">
	.st0{fill:#040000;}
</style>
<path class="st0" d="M184.89,122.75c8.58,0,13,4.16,13,13v9.1c0,8.58-4.16,13-13,13h-70.98v39.78h85.54c8.58,0,13,4.16,13,13v9.1
	c0,8.58-4.16,13-13,13H84.01c-8.58,0-13-4.16-13-13v-156c0-8.58,4.16-13,13-13h112.06c8.58,0,13,4.16,13,13v9.1
	c0,8.58-4.16,13-13,13h-82.16v36.92H184.89z"/>
</svg>
