<?xml version="1.0" encoding="utf-8"?>
<!-- Generator: Adobe Illustrator 27.5.0, SVG Export Plug-In . SVG Version: 6.00 Build 0)  -->
<svg version="1.1" id="图层_1" xmlns="http://www.w3.org/2000/svg" xmlns:xlink="http://www.w3.org/1999/xlink" x="0px" y="0px"
	 viewBox="0 0 283.46 283.46" style="enable-background:new 0 0 283.46 283.46;" xml:space="preserve">
<g>
	<path d="M60.35,50.73c-22.36,0-40.56,18.2-40.56,40.3c0,22.62,18.2,40.82,40.56,40.82c22.36,0,40.56-18.2,40.56-40.82
		C100.91,68.93,82.71,50.73,60.35,50.73z M60.35,109.75c-10.14,0-18.46-8.32-18.46-18.46c0-10.14,8.32-18.46,18.46-18.46
		c10.14,0,18.46,8.32,18.46,18.46C78.81,101.43,70.49,109.75,60.35,109.75z"/>
	<path d="M250.67,50.73c8.58,0,13,4.16,13,13v9.1c0,8.58-4.16,13-13,13h-82.16v43.42h70.98c8.58,0,13,4.16,13,13v9.1
		c0,8.58-4.16,13-13,13h-70.98v55.38c0,8.58-4.16,13-13,13h-16.9c-8.58,0-13-4.16-13-13v-156c0-8.58,4.16-13,13-13H250.67z"/>
</g>
</svg>
