<?xml version="1.0" encoding="utf-8"?>
<!-- Generator: Adobe Illustrator 27.5.0, SVG Export Plug-In . SVG Version: 6.00 Build 0)  -->
<svg version="1.1" id="图层_1" xmlns="http://www.w3.org/2000/svg" xmlns:xlink="http://www.w3.org/1999/xlink" x="0px" y="0px"
	 viewBox="0 0 283.46 283.46" style="enable-background:new 0 0 283.46 283.46;" xml:space="preserve">
<style type="text/css">
	.st0{fill:#040000;}
</style>
<path class="st0" d="M218.43,217.13c-16.64,13-39.78,19.76-63.44,19.76c-55.64,0-99.58-41.86-99.58-95.16s43.94-95.16,99.58-95.16
	c38.74,0,60.06,17.16,67.6,23.4c6.5,5.46,5.98,11.96,0.26,17.42l-10.14,9.1c-6.24,5.98-12.48,5.98-18.72-0.26
	c-10.92-8.84-23.66-13.26-39-13.26c-32.5,0-55.38,24.44-55.38,58.76s22.88,58.76,55.38,58.76c11.44,0,21.32-2.34,30.16-7.28v-26.52
	h-32.76c-8.58,0-13-4.16-13-13v-9.1c0-8.58,4.16-13,13-13h62.66c8.58,0,13,4.16,13,13v50.7
	C228.05,203.87,224.93,211.15,218.43,217.13z"/>
</svg>
