<?xml version="1.0" encoding="utf-8"?>
<!-- Generator: Adobe Illustrator 27.5.0, SVG Export Plug-In . SVG Version: 6.00 Build 0)  -->
<svg version="1.1" id="图层_1" xmlns="http://www.w3.org/2000/svg" xmlns:xlink="http://www.w3.org/1999/xlink" x="0px" y="0px"
	 viewBox="0 0 283.46 283.46" style="enable-background:new 0 0 283.46 283.46;" xml:space="preserve">
<style type="text/css">
	.st0{fill:#040000;}
</style>
<path class="st0" d="M212.58,50.73h-16.9c-8.84,0-13,4.42-13,13v58.24h-81.9V63.73c0-8.84-4.42-13-13-13h-16.9
	c-8.84,0-13,4.42-13,13v156c0,8.84,4.42,13,13,13h16.9c8.84,0,13-4.42,13-13v-61.36h81.9v61.36c0,8.84,4.42,13,13,13h16.9
	c8.84,0,13-4.42,13-13v-156C225.58,54.89,221.16,50.73,212.58,50.73z"/>
</svg>
