<?xml version="1.0" encoding="utf-8"?>
<!-- Generator: Adobe Illustrator 27.5.0, SVG Export Plug-In . SVG Version: 6.00 Build 0)  -->
<svg version="1.1" id="图层_1" xmlns="http://www.w3.org/2000/svg" xmlns:xlink="http://www.w3.org/1999/xlink" x="0px" y="0px"
	 viewBox="0 0 283.46 283.46" style="enable-background:new 0 0 283.46 283.46;" xml:space="preserve">
<style type="text/css">
	.st0{fill:#040000;}
</style>
<path class="st0" d="M203.12,160.45c0,53.3-30.68,74.36-63.44,74.36c-25.48,0-46.54-13.52-52-17.68c-7.54-5.2-9.88-10.4-4.16-17.16
	l8.58-10.66c5.46-6.5,11.44-7.02,17.68-1.04c8.58,6.5,17.94,9.88,26.26,9.88c13.52,0,24.18-9.36,24.18-32.5v-80.6h-49.92
	c-8.58,0-13-4.16-13-13v-10.4c0-8.58,4.16-13,13-13h79.82c8.58,0,13,4.16,13,13V160.45z"/>
</svg>
