<?xml version="1.0" encoding="utf-8"?>
<!-- Generator: Adobe Illustrator 27.5.0, SVG Export Plug-In . SVG Version: 6.00 Build 0)  -->
<svg version="1.1" id="图层_1" xmlns="http://www.w3.org/2000/svg" xmlns:xlink="http://www.w3.org/1999/xlink" x="0px" y="0px"
	 viewBox="0 0 283.46 283.46" style="enable-background:new 0 0 283.46 283.46;" xml:space="preserve">
<style type="text/css">
	.st0{fill:#040000;}
</style>
<path class="st0" d="M222.32,220.25l-69.72-87.98l64.26-68.01c5.98-6.24,3.38-13.52-6.24-13.52H189.3c-8.84,0-10.92,1.56-16.64,7.8
	l-71.5,75.7v-70.5c0-8.84-4.42-13-13-13h-16.9c-8.58,0-13,4.16-13,13v156c0,8.84,4.42,13,13,13h16.9c8.58,0,13-4.16,13-13v-33.02
	l24.12-25.53l51.27,63.49c4.68,5.98,7.02,8.06,15.6,8.06h24.7C225.18,232.73,227.78,227.27,222.32,220.25z"/>
</svg>
