<?xml version="1.0" encoding="utf-8"?>
<!-- Generator: Adobe Illustrator 27.5.0, SVG Export Plug-In . SVG Version: 6.00 Build 0)  -->
<svg version="1.1" id="图层_1" xmlns="http://www.w3.org/2000/svg" xmlns:xlink="http://www.w3.org/1999/xlink" x="0px" y="0px"
	 viewBox="0 0 283.46 283.46" style="enable-background:new 0 0 283.46 283.46;" xml:space="preserve">
<style type="text/css">
	.st0{fill:#040000;}
</style>
<path class="st0" d="M231.43,50.73c8.58,0,13,4.16,13,13v156c0,8.58-4.16,13-13,13h-14.3c-8.58,0-13-4.16-13-13v-92.76l-46.28,75.34
	c-4.68,7.54-7.54,11.18-16.12,11.18c-8.58,0-11.44-3.64-16.12-11.18L79.33,126.9v92.83c0,8.58-4.16,13-13,13h-14.3
	c-8.58,0-13-4.16-13-13v-156c0-8.58,4.16-13,13-13h14.3c5.98,0,9.88,3.64,14.56,11.18l60.84,99.25l60.84-99.25
	c4.68-7.54,8.58-11.18,14.56-11.18H231.43z"/>
</svg>
