<?xml version="1.0" encoding="utf-8"?>
<!-- Generator: Adobe Illustrator 27.5.0, SVG Export Plug-In . SVG Version: 6.00 Build 0)  -->
<svg version="1.1" id="图层_1" xmlns="http://www.w3.org/2000/svg" xmlns:xlink="http://www.w3.org/1999/xlink" x="0px" y="0px"
	 viewBox="0 0 283.46 283.46" style="enable-background:new 0 0 283.46 283.46;" xml:space="preserve">
<style type="text/css">
	.st0{fill:#040000;}
</style>
<path class="st0" d="M195.81,50.73h16.9c8.58,0,13,4.16,13,13v156c0,8.58-4.16,13-13,13h-10.4c-9.36,0-14.56-3.64-20.8-10.92
	l-80.86-98.02v95.94c0,8.58-4.16,13-13,13h-16.9c-8.58,0-13-4.16-13-13v-156c0-8.58,4.16-13,13-13h11.7c8.58,0,13,3.12,18.72,10.14
	l81.64,98.8V63.73C182.81,55.15,186.97,50.73,195.81,50.73z"/>
</svg>
