<?xml version="1.0" encoding="utf-8"?>
<!-- Generator: Adobe Illustrator 27.5.0, SVG Export Plug-In . SVG Version: 6.00 Build 0)  -->
<svg version="1.1" id="图层_1" xmlns="http://www.w3.org/2000/svg" xmlns:xlink="http://www.w3.org/1999/xlink" x="0px" y="0px"
	 viewBox="0 0 283.46 283.46" style="enable-background:new 0 0 283.46 283.46;" xml:space="preserve">
<style type="text/css">
	.st0{fill:#040000;}
</style>
<path class="st0" d="M241.69,226.8l-7.54-8.06c-5.72-6.76-11.44-6.24-16.9-1.3c-3.38,3.12-11.7,7.54-21.06,7.54
	c-8.76,0-17.17-4.03-24.51-13.33c38.45-13.05,65.33-47.81,65.33-89.62c0-53.3-43.68-95.16-99.32-95.16
	c-55.64,0-99.58,41.86-99.58,95.16c0,49.71,38.22,89.46,88.51,94.59c28.87,45.4,79,48.57,113.24,27.35
	C246.11,239.28,247.41,233.04,241.69,226.8z M82.32,122.02c0-34.32,22.88-58.76,55.38-58.76c32.24,0,55.12,24.44,55.12,58.76
	s-22.88,58.5-55.12,58.5C105.2,180.52,82.32,156.34,82.32,122.02z"/>
</svg>
