<?xml version="1.0" encoding="utf-8"?>
<!-- Generator: Adobe Illustrator 27.5.0, SVG Export Plug-In . SVG Version: 6.00 Build 0)  -->
<svg version="1.1" id="图层_1" xmlns="http://www.w3.org/2000/svg" xmlns:xlink="http://www.w3.org/1999/xlink" x="0px" y="0px"
	 viewBox="0 0 283.46 283.46" style="enable-background:new 0 0 283.46 283.46;" xml:space="preserve">
<style type="text/css">
	.st0{fill:#040000;}
</style>
<path class="st0" d="M181.21,167.55c23.37-8.57,40.21-26.13,40.21-55.2c0-43.94-38.48-61.62-79.82-61.62H75.04
	c-8.84,0-13,4.42-13,13v156c0,8.84,4.42,13,13,13h16.9c8.84,0,13-4.42,13-13v-45.76h35.48l34.46,49.66c5.2,7.28,8.58,9.1,14.56,9.1
	h21.58c10.92,0,11.18-6.5,6.76-12.48L181.21,167.55z M139.52,138.87h-34.58V85.83h34.58c13.78,0,39,2.34,39,26.52
	S153.3,138.87,139.52,138.87z"/>
</svg>
