<?xml version="1.0" encoding="utf-8"?>
<!-- Generator: Adobe Illustrator 27.5.0, SVG Export Plug-In . SVG Version: 6.00 Build 0)  -->
<svg version="1.1" id="图层_1" xmlns="http://www.w3.org/2000/svg" xmlns:xlink="http://www.w3.org/1999/xlink" x="0px" y="0px"
	 viewBox="0 0 283.46 283.46" style="enable-background:new 0 0 283.46 283.46;" xml:space="preserve">
<style type="text/css">
	.st0{fill:#040000;}
</style>
<path class="st0" d="M68.93,205.17l4.94-10.92c3.38-7.8,8.84-9.88,16.12-5.2c29.9,14.82,83.98,18.72,83.98-7.54
	c0-36.14-107.38-7.02-107.38-78.52c0-35.36,33.02-56.42,73.58-56.42c23.66,0,47.06,7.8,56.94,11.7c8.06,3.38,10.66,8.32,7.28,16.38
	l-3.9,9.62c-3.38,7.8-8.84,10.14-16.64,6.5c-28.34-10.4-74.1-13.52-74.36,10.4c0,35.1,107.38,8.58,107.38,80.34
	c0,37.44-33.02,55.38-77.48,55.38c-26.78,0-55.9-11.18-64.74-15.86C66.59,216.87,65.55,213.23,68.93,205.17z"/>
</svg>
