<?xml version="1.0" encoding="utf-8"?>
<!-- Generator: Adobe Illustrator 27.5.0, SVG Export Plug-In . SVG Version: 6.00 Build 0)  -->
<svg version="1.1" id="图层_1" xmlns="http://www.w3.org/2000/svg" xmlns:xlink="http://www.w3.org/1999/xlink" x="0px" y="0px"
	 viewBox="0 0 283.46 283.46" style="enable-background:new 0 0 283.46 283.46;" xml:space="preserve">
<style type="text/css">
	.st0{fill:#040000;}
</style>
<path class="st0" d="M150.18,50.73c8.58,0,11.44,3.9,14.04,12.48l28.86,102.15L223.5,61.13c2.34-8.06,5.2-10.4,13.52-10.4h19.5
	c9.62,0,13,4.68,10.14,13.78l-46.8,155.74c-2.34,8.58-6.76,12.48-15.34,12.48h-19.76c-8.58,0-12.74-3.9-15.08-12.48l-28.03-101.1
	l-28.13,101.1c-2.08,8.32-6.24,12.48-15.08,12.48h-19.5c-8.58,0-13-3.9-15.34-12.48L16.81,64.51c-2.86-9.1,0.52-13.78,10.14-13.78
	h19.5c8.32,0,11.18,2.34,13.52,10.4L90.25,164.9l28.74-101.69c2.34-8.32,5.2-12.48,14.04-12.48H150.18z"/>
</svg>
