<?xml version="1.0" encoding="utf-8"?>
<!-- Generator: Adobe Illustrator 27.5.0, SVG Export Plug-In . SVG Version: 6.00 Build 0)  -->
<svg version="1.1" id="图层_1" xmlns="http://www.w3.org/2000/svg" xmlns:xlink="http://www.w3.org/1999/xlink" x="0px" y="0px"
	 viewBox="0 0 283.46 283.46" style="enable-background:new 0 0 283.46 283.46;" xml:space="preserve">
<style type="text/css">
	.st0{fill:#040000;}
</style>
<path class="st0" d="M224.54,219.21l-57.93-78.45l57.15-77.55c6.24-8.32,3.9-12.48-6.5-12.48h-24.7c-8.84,0-11.7,3.64-16.9,10.4
	l-33.93,45.94L107.8,61.13c-5.2-6.76-8.06-10.4-16.9-10.4H66.46c-10.4,0-13,4.16-6.76,12.48l57.15,77.55l-57.93,78.45
	c-6.76,9.1-4.16,13.52,7.02,13.52h25.22c8.06,0,10.14-3.12,14.56-9.36l36.01-48.86l36.01,48.86c4.42,6.24,6.5,9.36,14.56,9.36h25.22
	C228.7,232.73,231.3,228.31,224.54,219.21z"/>
</svg>
