<?xml version="1.0" encoding="utf-8"?>
<!-- Generator: Adobe Illustrator 27.5.0, SVG Export Plug-In . SVG Version: 6.00 Build 0)  -->
<svg version="1.1" id="图层_1" xmlns="http://www.w3.org/2000/svg" xmlns:xlink="http://www.w3.org/1999/xlink" x="0px" y="0px"
	 viewBox="0 0 283.46 283.46" style="enable-background:new 0 0 283.46 283.46;" xml:space="preserve">
<style type="text/css">
	.st0{fill:#040000;}
</style>
<path class="st0" d="M70.49,195.55l90.48-108.94H77.25c-8.84,0-13-4.42-13-13v-9.88c0-8.58,4.16-13,13-13h127.14
	c8.32,0,13,4.16,13,11.96v6.24c0,5.98-2.6,12.22-8.32,18.98l-90.48,108.94h89.7c8.84,0,13,4.42,13,13v9.88c0,8.58-4.16,13-13,13
	H75.17c-8.58,0-13-4.16-13-13v-6.24C62.17,207.51,64.77,202.31,70.49,195.55z"/>
</svg>
